<svg width="140" height="34" viewBox="0 0 140 34" fill="none" xmlns="http://www.w3.org/2000/svg">
<path d="M44.2 23H46.246V15.762H52.406V14.046H46.246V8.59H53.506V6.852H44.2V23ZM59.8824 23.286C62.8084 23.286 65.4264 20.998 65.4264 17.038C65.4264 13.056 62.8084 10.746 59.8824 10.746C56.9564 10.746 54.3384 13.056 54.3384 17.038C54.3384 20.998 56.9564 23.286 59.8824 23.286ZM59.8824 21.614C57.8144 21.614 56.4284 19.788 56.4284 17.038C56.4284 14.288 57.8144 12.418 59.8824 12.418C61.9504 12.418 63.3584 14.288 63.3584 17.038C63.3584 19.788 61.9504 21.614 59.8824 21.614ZM67.9822 23H69.9842V15.322C70.7762 13.276 72.0082 12.572 72.9982 12.572C73.4822 12.572 73.7682 12.616 74.1642 12.77L74.5382 11.01C74.1642 10.812 73.7902 10.746 73.2622 10.746C71.9202 10.746 70.7102 11.714 69.8742 13.232H69.8082L69.6322 11.054H67.9822V23ZM80.4074 23H82.4534V15.762H88.6134V14.046H82.4534V8.59H89.7134V6.852H80.4074V23ZM91.7701 23H93.7721V11.054H91.7701V23ZM92.7821 8.59C93.5741 8.59 94.1241 8.062 94.1241 7.248C94.1241 6.478 93.5741 5.95 92.7821 5.95C91.9901 5.95 91.4401 6.478 91.4401 7.248C91.4401 8.062 91.9901 8.59 92.7821 8.59ZM101.255 28.5C104.951 28.5 107.305 26.586 107.305 24.364C107.305 22.406 105.897 21.526 103.125 21.526H100.793C99.1867 21.526 98.7027 20.998 98.7027 20.228C98.7027 19.568 99.0327 19.172 99.4727 18.798C100.001 19.062 100.661 19.216 101.255 19.216C103.675 19.216 105.611 17.61 105.611 15.058C105.611 14.024 105.215 13.144 104.643 12.594H107.085V11.054H102.927C102.509 10.9 101.915 10.746 101.255 10.746C98.8347 10.746 96.7667 12.396 96.7667 15.014C96.7667 16.444 97.5367 17.588 98.3287 18.226V18.314C97.7127 18.754 96.9867 19.546 96.9867 20.536C96.9867 21.482 97.4487 22.12 98.0867 22.494V22.582C96.9647 23.308 96.3267 24.276 96.3267 25.288C96.3267 27.356 98.3287 28.5 101.255 28.5ZM101.255 17.852C99.8687 17.852 98.7027 16.752 98.7027 15.014C98.7027 13.254 99.8467 12.22 101.255 12.22C102.663 12.22 103.807 13.276 103.807 15.014C103.807 16.752 102.619 17.852 101.255 17.852ZM101.541 27.136C99.3847 27.136 98.0867 26.3 98.0867 25.024C98.0867 24.32 98.4387 23.616 99.2967 23C99.8247 23.132 100.397 23.198 100.837 23.198H102.905C104.489 23.198 105.347 23.572 105.347 24.672C105.347 25.926 103.829 27.136 101.541 27.136ZM109.025 23H111.027V14.332C112.127 13.1 113.139 12.506 114.041 12.506C115.559 12.506 116.263 13.452 116.263 15.696V23H118.265V14.332C119.387 13.1 120.355 12.506 121.279 12.506C122.797 12.506 123.501 13.452 123.501 15.696V23H125.503V15.432C125.503 12.374 124.337 10.746 121.873 10.746C120.421 10.746 119.167 11.692 117.935 13.034C117.451 11.626 116.461 10.746 114.635 10.746C113.205 10.746 111.951 11.648 110.917 12.792H110.851L110.675 11.054H109.025V23ZM131.542 23.286C133.016 23.286 134.358 22.516 135.502 21.57H135.568L135.744 23H137.394V15.652C137.394 12.704 136.162 10.746 133.258 10.746C131.344 10.746 129.65 11.604 128.55 12.308L129.342 13.694C130.288 13.056 131.542 12.418 132.928 12.418C134.886 12.418 135.392 13.892 135.392 15.432C130.31 16.004 128.044 17.302 128.044 19.898C128.044 22.054 129.54 23.286 131.542 23.286ZM132.114 21.68C130.926 21.68 130.002 21.13 130.002 19.766C130.002 18.226 131.366 17.236 135.392 16.752V20.096C134.226 21.13 133.28 21.68 132.114 21.68Z" fill="black"/>
<path d="M5.50036 33.9998C8.53575 33.9998 10.9993 31.4611 10.9993 28.3331V22.6664H5.50036C2.46497 22.6664 0.00146484 25.2051 0.00146484 28.3331C0.00146484 31.4611 2.46497 33.9998 5.50036 33.9998Z" fill="#0ACF83"/>
<path d="M0.00146484 17.0002C0.00146484 13.8722 2.46497 11.3336 5.50036 11.3336H10.9993V22.6669H5.50036C2.46497 22.6669 0.00146484 20.1282 0.00146484 17.0002Z" fill="#A259FF"/>
<path d="M0.00292969 5.66673C0.00292969 2.53873 2.46644 6.10352e-05 5.50183 6.10352e-05H11.0007V11.3334H5.50183C2.46644 11.3334 0.00292969 8.79473 0.00292969 5.66673Z" fill="#F24E1E"/>
<path d="M11 0.00012207H16.4989C19.5343 0.00012207 21.9978 2.53879 21.9978 5.66679C21.9978 8.79479 19.5343 11.3335 16.4989 11.3335H11V0.00012207Z" fill="#FF7262"/>
<path d="M21.9978 17.0002C21.9978 20.1282 19.5343 22.6669 16.4989 22.6669C13.4635 22.6669 11 20.1282 11 17.0002C11 13.8722 13.4635 11.3336 16.4989 11.3336C19.5343 11.3336 21.9978 13.8722 21.9978 17.0002Z" fill="#1ABCFE"/>
</svg>
