<svg width="48" height="48" viewBox="0 0 48 48" fill="none" xmlns="http://www.w3.org/2000/svg">
<circle cx="24" cy="24" r="23" stroke="#123AD1" stroke-width="2"/>
<path d="M23.625 13.5C20.8752 13.5 20.5304 13.5117 19.4505 13.5609C18.3728 13.6101 17.6368 13.7813 16.9927 14.0316C16.3269 14.2903 15.7622 14.6365 15.1994 15.1994C14.6365 15.7623 14.2903 16.3269 14.0315 16.9927C13.7812 17.6368 13.6101 18.3728 13.5609 19.4505C13.5116 20.5304 13.5 20.8752 13.5 23.625C13.5 26.3748 13.5116 26.7196 13.5609 27.7995C13.6101 28.8772 13.7812 29.6132 14.0315 30.2573C14.2903 30.9231 14.6365 31.4877 15.1994 32.0506C15.7622 32.6135 16.3269 32.9597 16.9927 33.2185C17.6368 33.4687 18.3728 33.6399 19.4505 33.6891C20.5304 33.7383 20.8752 33.75 23.625 33.75C26.3748 33.75 26.7196 33.7383 27.7995 33.6891C28.8772 33.6399 29.6132 33.4687 30.2573 33.2185C30.9231 32.9597 31.4877 32.6135 32.0506 32.0506C32.6135 31.4877 32.9597 30.9231 33.2185 30.2573C33.4687 29.6132 33.6399 28.8772 33.6891 27.7995C33.7383 26.7196 33.75 26.3748 33.75 23.625C33.75 20.8752 33.7383 20.5304 33.6891 19.4505C33.6399 18.3728 33.4687 17.6368 33.2185 16.9927C32.9597 16.3269 32.6135 15.7623 32.0506 15.1994C31.4877 14.6365 30.9231 14.2903 30.2573 14.0316C29.6132 13.7813 28.8772 13.6101 27.7995 13.5609C26.7196 13.5117 26.3748 13.5 23.625 13.5ZM23.625 15.3244C26.3285 15.3244 26.6487 15.3347 27.7164 15.3834C28.7035 15.4284 29.2397 15.5934 29.5964 15.732C30.069 15.9157 30.4063 16.1351 30.7606 16.4894C31.1149 16.8437 31.3343 17.181 31.518 17.6536C31.6567 18.0103 31.8216 18.5465 31.8666 19.5336C31.9153 20.6013 31.9257 20.9215 31.9257 23.625C31.9257 26.3285 31.9153 26.6487 31.8666 27.7164C31.8216 28.7035 31.6567 29.2397 31.518 29.5964C31.3343 30.069 31.1149 30.4063 30.7606 30.7606C30.4063 31.1149 30.069 31.3343 29.5964 31.518C29.2397 31.6567 28.7035 31.8216 27.7164 31.8666C26.6489 31.9154 26.3287 31.9257 23.625 31.9257C20.9213 31.9257 20.6012 31.9154 19.5336 31.8666C18.5465 31.8216 18.0103 31.6567 17.6536 31.518C17.181 31.3343 16.8437 31.1149 16.4893 30.7606C16.1351 30.4063 15.9156 30.069 15.732 29.5964C15.5933 29.2397 15.4284 28.7035 15.3833 27.7164C15.3346 26.6487 15.3243 26.3285 15.3243 23.625C15.3243 20.9215 15.3346 20.6013 15.3833 19.5336C15.4284 18.5465 15.5933 18.0103 15.732 17.6536C15.9156 17.181 16.1351 16.8437 16.4893 16.4894C16.8437 16.1351 17.181 15.9157 17.6536 15.732C18.0103 15.5934 18.5465 15.4284 19.5336 15.3834C20.6013 15.3347 20.9215 15.3244 23.625 15.3244Z" fill="#123AD1"/>
<path d="M23.6237 26.9989C21.7597 26.9989 20.2486 25.4879 20.2486 23.6239C20.2486 21.7599 21.7597 20.2489 23.6237 20.2489C25.4876 20.2489 26.9986 21.7599 26.9986 23.6239C26.9986 25.4879 25.4876 26.9989 23.6237 26.9989ZM23.6237 18.4246C20.7521 18.4246 18.4243 20.7524 18.4243 23.6239C18.4243 26.4954 20.7521 28.8232 23.6237 28.8232C26.4952 28.8232 28.823 26.4954 28.823 23.6239C28.823 20.7524 26.4952 18.4246 23.6237 18.4246Z" fill="#123AD1"/>
<path d="M30.2401 18.2201C30.2401 18.8911 29.6961 19.4351 29.025 19.4351C28.354 19.4351 27.8101 18.8911 27.8101 18.2201C27.8101 17.5491 28.354 17.0051 29.025 17.0051C29.6961 17.0051 30.2401 17.5491 30.2401 18.2201Z" fill="#123AD1"/>
</svg>
