<svg width="48" height="48" viewBox="0 0 48 48" fill="none" xmlns="http://www.w3.org/2000/svg">
<circle cx="24" cy="24" r="23" stroke="#123AD1" stroke-width="2"/>
<path d="M30.617 33V24.5943C30.617 24.5943 30.1585 22.8368 28.4774 22.9132C26.7962 22.9896 26.2613 23.2571 25.4972 24.1741V33H21.1797V19.6656H25.459V21.6142C25.459 21.6142 26.8344 18.9014 29.7382 19.0925C32.3745 19.2835 34.3613 20.8882 34.7816 24.4033H34.8962V33H30.617ZM16.0599 17.9462C14.6462 17.9462 13.5 16.8 13.5 15.3481C13.5 13.9344 14.6462 12.75 16.0599 12.75C17.4736 12.75 18.6198 13.8962 18.6198 15.3481C18.6198 16.7618 17.4736 17.9462 16.0599 17.9462ZM18.1995 33H13.9203V19.6656H18.1995V33Z" fill="#123AD1"/>
</svg>
