<svg width="210" height="41" viewBox="0 0 210 41" fill="none" xmlns="http://www.w3.org/2000/svg">
<path d="M21.6117 29.8456C21.6117 28.4387 21.1116 27.3425 20.1114 26.5568C19.1293 25.7712 17.3925 24.9581 14.901 24.1176C12.4095 23.2772 10.3727 22.4641 8.79051 21.6785C3.64383 19.1388 1.07049 15.6491 1.07049 11.2092C1.07049 8.99844 1.70701 7.05259 2.98004 5.37166C4.27125 3.67246 6.08987 2.35695 8.43588 1.42513C10.7819 0.475045 13.4189 0 16.3468 0C19.2021 0 21.7572 0.511586 24.0123 1.53476C26.2856 2.55793 28.0496 4.01961 29.3045 5.91979C29.9615 6.90516 30.4465 7.96567 30.7595 9.10132L21.5919 11.5574C21.446 10.3261 20.9616 9.3422 20.1387 8.60562C19.1566 7.71034 17.8199 7.2627 16.1286 7.2627C14.4191 7.2627 13.0642 7.64639 12.064 8.41377C11.082 9.16288 10.5909 10.1221 10.5909 11.2914C10.5909 12.3146 11.1365 13.2464 12.2277 14.0869C13.3189 14.9091 15.2375 15.7678 17.9836 16.6631C20.7297 17.5401 22.9848 18.4902 24.7488 19.5134C29.0408 21.9982 31.1867 25.424 31.1867 29.7908C31.1867 33.2805 29.8773 36.0212 27.2585 38.0127C24.6397 40.0042 21.048 41 16.4832 41C13.2643 41 10.3454 40.4245 7.72662 39.2734C5.126 38.1041 3.1619 36.5145 1.83431 34.5047C0.861509 32.998 0.250071 31.3248 0 29.4853L9.47437 27.7319C9.51016 29.7604 10.0551 31.2689 11.1092 32.2574C12.2186 33.2623 14.0099 33.7647 16.4832 33.7647C18.0654 33.7647 19.3112 33.4267 20.2205 32.7507C21.148 32.0564 21.6117 31.088 21.6117 29.8456Z" fill="#262626"/>
<path d="M32.9981 31.9285C32.9981 34.9797 33.7528 37.2545 35.2622 38.7527C36.7717 40.2509 39.1086 41 42.273 41C44.0734 41 45.8011 40.7351 47.456 40.2052V33.6003C46.8377 33.7099 46.0739 33.7647 45.1646 33.7647C43.9825 33.7647 43.1914 33.5455 42.7913 33.107C42.3912 32.6684 42.1911 31.8919 42.1911 30.7774V17.2112H47.0468V10.7981H42.1911V0.151649L32.9981 2.02259V31.9285Z" fill="#262626"/>
<path fill-rule="evenodd" clip-rule="evenodd" d="M63.5726 41C59.0442 41 55.3797 39.648 52.5791 36.9439C49.7784 34.2215 48.3781 30.6861 48.3781 26.3376V25.5702C48.3781 22.5372 48.9327 19.8605 50.0421 17.5401C51.1696 15.2197 52.8064 13.4291 54.9524 12.1684C57.0983 10.8895 59.6444 10.25 62.5905 10.25C66.737 10.25 70.0105 11.5472 72.411 14.1417C74.8116 16.7179 76.0119 20.3173 76.0119 24.9398V28.5301H57.7348C58.0622 30.1927 58.7805 31.4991 59.8899 32.4492C60.9992 33.3993 62.436 33.8743 64.2 33.8743C67.1098 33.8743 69.3831 32.8512 71.0198 30.8048L75.2208 35.7928C74.0751 37.3824 72.4474 38.6522 70.3378 39.6023C68.2464 40.5341 65.9913 41 63.5726 41ZM62.536 17.3757C59.8444 17.3757 58.244 19.1662 57.7348 22.7473H67.0098V22.0348C67.0461 20.5548 66.6733 19.4129 65.8913 18.609C65.1093 17.7868 63.9909 17.3757 62.536 17.3757Z" fill="#262626"/>
<path d="M86.7817 11.2659L87.0818 14.7465C89.1186 12.0606 91.9284 10.7177 95.5111 10.7177C98.5845 10.7177 100.876 11.6404 102.385 13.4858C103.913 15.3312 104.704 18.1083 104.759 21.8173V40.9196H95.5383V22.201C95.5383 20.7028 95.2383 19.6066 94.6381 18.9123C94.038 18.1997 92.9468 17.8434 91.3646 17.8434C89.5642 17.8434 88.2275 18.556 87.3546 19.9811V40.9196H78.1615V11.2659H86.7817Z" fill="#262626"/>
<path d="M120.026 33.8743C121.317 33.8743 122.317 33.5272 123.027 32.8329C123.736 32.1203 124.081 31.1337 124.063 29.873H132.684C132.684 33.1252 131.52 35.7928 129.192 37.8757C126.882 39.9586 123.9 41 120.244 41C115.952 41 112.57 39.648 110.096 36.9439C107.623 34.2398 106.386 30.4942 106.386 25.7072V25.3235C106.386 22.3271 106.932 19.6869 108.023 17.4031C109.132 15.1009 110.724 13.3378 112.797 12.1136C114.87 10.8712 117.325 10.25 120.162 10.25C124 10.25 127.046 11.3189 129.301 13.4566C131.186 15.2436 132.283 17.5605 132.592 20.4074L124.063 22.0243C124.043 20.548 123.671 19.4096 122.945 18.609C122.199 17.7868 121.199 17.3757 119.944 17.3757C117.562 17.3757 116.171 18.9013 115.77 21.9525C115.643 22.9209 115.579 24.2547 115.579 25.9539C115.579 28.932 115.934 30.9967 116.643 32.1477C117.353 33.2988 118.48 33.8743 120.026 33.8743Z" fill="#262626"/>
<path d="M135.186 5.25774L144.406 3.07776V11.1595L135.186 13.0966V5.25774Z" fill="#262626"/>
<path d="M144.406 14.3648L135.186 16.2551V40.9196H144.406V14.3648Z" fill="#262626"/>
<path d="M146.847 40.9196H156.067V0.352956L146.847 2.50835V40.9196Z" fill="#262626"/>
<path d="M197.521 26.6664V0.548128H187.946V26.6116C187.946 29.0782 187.436 30.8596 186.418 31.9559C185.4 33.0521 183.899 33.6003 181.917 33.6003C177.989 33.6003 175.97 31.4169 175.861 27.0501V0.548128H166.231V26.8583C166.286 31.2433 167.705 34.6965 170.487 37.2179C173.269 39.7393 177.079 41 181.917 41C185.118 41 187.891 40.4336 190.237 39.3008C192.583 38.168 194.384 36.5236 195.638 34.3677C196.893 32.1934 197.521 29.6263 197.521 26.6664Z" fill="#262626"/>
<path d="M200.452 40.9196H210V1.01586H200.452V40.9196Z" fill="#262626"/>
</svg>
