<svg width="48" height="48" viewBox="0 0 48 48" fill="none" xmlns="http://www.w3.org/2000/svg">
<circle cx="24" cy="24" r="23" stroke="#123AD1" stroke-width="2"/>
<path d="M19.2693 34.5C28.8919 34.5 34.1551 26.42 34.1551 19.413C34.1551 19.1835 34.1551 18.9551 34.1398 18.7276C35.1637 17.977 36.0476 17.0476 36.75 15.9829C35.7952 16.4118 34.7822 16.6929 33.7451 16.8172C34.837 16.1547 35.6547 15.112 36.0452 13.8843C35.0182 14.5019 33.8946 14.9372 32.723 15.1714C31.7338 14.1053 30.3522 13.5 28.9084 13.5C26.0355 13.5 23.6716 15.8959 23.6716 18.8074C23.6716 19.2113 23.7172 19.614 23.8072 20.0074C19.6028 19.7939 15.6801 17.7783 13.0248 14.4674C11.644 16.8765 12.3585 19.9985 14.6445 21.5457C13.8121 21.5207 12.9974 21.293 12.27 20.882V20.9492C12.2707 23.4637 14.0354 25.6492 16.4673 26.1471C15.6971 26.3599 14.8888 26.391 14.105 26.238C14.7887 28.3927 16.7601 29.8779 18.9928 29.9204C17.1406 31.3957 14.8512 32.1971 12.4954 32.1947C12.0791 32.1939 11.6633 32.1683 11.25 32.1182C13.6423 33.6741 16.4267 34.4997 19.2693 34.4959" fill="#123AD1"/>
</svg>
